<?xml version='1.0' encoding='UTF-8'?>
<svg xmlns="http://www.w3.org/2000/svg" xmlns:xlink="http://www.w3.org/1999/xlink" width="2100" height="1500" viewBox="0 0 2100 1500">
<title>Bandeira do Amazonas</title>
<defs>
<g id="s">
<polygon id="t" fill="#fff" points="0.162,0 0,-0.5 -0.162,0" transform="scale(65)"/>
<g id="u">
<g transform="rotate(72)"><polygon fill="#fff" points="0.162,0 0,-0.5 -0.162,0" transform="scale(65)"/>
</g><g transform="rotate(216)"><polygon fill="#fff" points="0.162,0 0,-0.5 -0.162,0" transform="scale(65)"/>
</g></g>
<g transform="rotate(72)"><g>
<g transform="rotate(72)"><polygon fill="#fff" points="0.162,0 0,-0.5 -0.162,0" transform="scale(65)"/>
</g><g transform="rotate(216)"><polygon fill="#fff" points="0.162,0 0,-0.5 -0.162,0" transform="scale(65)"/>
</g></g>
</g></g>
</defs>
<rect fill="#fff" width="2100" height="1500"/>
<rect fill="#001e78" width="900" height="600"/>
<rect fill="#d20000" y="500" width="2100" height="500"/>
<g transform="translate(450 250)">
<g transform="scale(2)"><g>
<polygon fill="#fff" points="0.162,0 0,-0.5 -0.162,0" transform="scale(65)"/>
<g>
<g transform="rotate(72)"><polygon fill="#fff" points="0.162,0 0,-0.5 -0.162,0" transform="scale(65)"/>
</g><g transform="rotate(216)"><polygon fill="#fff" points="0.162,0 0,-0.5 -0.162,0" transform="scale(65)"/>
</g></g>
<g transform="rotate(72)"><g>
<g transform="rotate(72)"><polygon fill="#fff" points="0.162,0 0,-0.5 -0.162,0" transform="scale(65)"/>
</g><g transform="rotate(216)"><polygon fill="#fff" points="0.162,0 0,-0.5 -0.162,0" transform="scale(65)"/>
</g></g>
</g></g>
</g><g id="s12">
<g id="s4">
<g id="s2">
<g transform="translate(-350 -150)"><g>
<polygon fill="#fff" points="0.162,0 0,-0.5 -0.162,0" transform="scale(65)"/>
<g>
<g transform="rotate(72)"><polygon fill="#fff" points="0.162,0 0,-0.5 -0.162,0" transform="scale(65)"/>
</g><g transform="rotate(216)"><polygon fill="#fff" points="0.162,0 0,-0.5 -0.162,0" transform="scale(65)"/>
</g></g>
<g transform="rotate(72)"><g>
<g transform="rotate(72)"><polygon fill="#fff" points="0.162,0 0,-0.5 -0.162,0" transform="scale(65)"/>
</g><g transform="rotate(216)"><polygon fill="#fff" points="0.162,0 0,-0.5 -0.162,0" transform="scale(65)"/>
</g></g>
</g></g>
</g><g transform="translate(-150 -150)"><g>
<polygon fill="#fff" points="0.162,0 0,-0.5 -0.162,0" transform="scale(65)"/>
<g>
<g transform="rotate(72)"><polygon fill="#fff" points="0.162,0 0,-0.5 -0.162,0" transform="scale(65)"/>
</g><g transform="rotate(216)"><polygon fill="#fff" points="0.162,0 0,-0.5 -0.162,0" transform="scale(65)"/>
</g></g>
<g transform="rotate(72)"><g>
<g transform="rotate(72)"><polygon fill="#fff" points="0.162,0 0,-0.5 -0.162,0" transform="scale(65)"/>
</g><g transform="rotate(216)"><polygon fill="#fff" points="0.162,0 0,-0.5 -0.162,0" transform="scale(65)"/>
</g></g>
</g></g>
</g></g>
<g transform="translate(0 200)"><g>
<g transform="translate(-350 -150)"><g>
<polygon fill="#fff" points="0.162,0 0,-0.5 -0.162,0" transform="scale(65)"/>
<g>
<g transform="rotate(72)"><polygon fill="#fff" points="0.162,0 0,-0.5 -0.162,0" transform="scale(65)"/>
</g><g transform="rotate(216)"><polygon fill="#fff" points="0.162,0 0,-0.5 -0.162,0" transform="scale(65)"/>
</g></g>
<g transform="rotate(72)"><g>
<g transform="rotate(72)"><polygon fill="#fff" points="0.162,0 0,-0.5 -0.162,0" transform="scale(65)"/>
</g><g transform="rotate(216)"><polygon fill="#fff" points="0.162,0 0,-0.5 -0.162,0" transform="scale(65)"/>
</g></g>
</g></g>
</g><g transform="translate(-150 -150)"><g>
<polygon fill="#fff" points="0.162,0 0,-0.5 -0.162,0" transform="scale(65)"/>
<g>
<g transform="rotate(72)"><polygon fill="#fff" points="0.162,0 0,-0.5 -0.162,0" transform="scale(65)"/>
</g><g transform="rotate(216)"><polygon fill="#fff" points="0.162,0 0,-0.5 -0.162,0" transform="scale(65)"/>
</g></g>
<g transform="rotate(72)"><g>
<g transform="rotate(72)"><polygon fill="#fff" points="0.162,0 0,-0.5 -0.162,0" transform="scale(65)"/>
</g><g transform="rotate(216)"><polygon fill="#fff" points="0.162,0 0,-0.5 -0.162,0" transform="scale(65)"/>
</g></g>
</g></g>
</g></g>
</g></g>
<g transform="translate(0 100)"><g>
<g>
<g transform="translate(-350 -150)"><g>
<polygon fill="#fff" points="0.162,0 0,-0.5 -0.162,0" transform="scale(65)"/>
<g>
<g transform="rotate(72)"><polygon fill="#fff" points="0.162,0 0,-0.5 -0.162,0" transform="scale(65)"/>
</g><g transform="rotate(216)"><polygon fill="#fff" points="0.162,0 0,-0.5 -0.162,0" transform="scale(65)"/>
</g></g>
<g transform="rotate(72)"><g>
<g transform="rotate(72)"><polygon fill="#fff" points="0.162,0 0,-0.5 -0.162,0" transform="scale(65)"/>
</g><g transform="rotate(216)"><polygon fill="#fff" points="0.162,0 0,-0.5 -0.162,0" transform="scale(65)"/>
</g></g>
</g></g>
</g><g transform="translate(-150 -150)"><g>
<polygon fill="#fff" points="0.162,0 0,-0.5 -0.162,0" transform="scale(65)"/>
<g>
<g transform="rotate(72)"><polygon fill="#fff" points="0.162,0 0,-0.5 -0.162,0" transform="scale(65)"/>
</g><g transform="rotate(216)"><polygon fill="#fff" points="0.162,0 0,-0.5 -0.162,0" transform="scale(65)"/>
</g></g>
<g transform="rotate(72)"><g>
<g transform="rotate(72)"><polygon fill="#fff" points="0.162,0 0,-0.5 -0.162,0" transform="scale(65)"/>
</g><g transform="rotate(216)"><polygon fill="#fff" points="0.162,0 0,-0.5 -0.162,0" transform="scale(65)"/>
</g></g>
</g></g>
</g></g>
<g transform="translate(0 200)"><g>
<g transform="translate(-350 -150)"><g>
<polygon fill="#fff" points="0.162,0 0,-0.5 -0.162,0" transform="scale(65)"/>
<g>
<g transform="rotate(72)"><polygon fill="#fff" points="0.162,0 0,-0.5 -0.162,0" transform="scale(65)"/>
</g><g transform="rotate(216)"><polygon fill="#fff" points="0.162,0 0,-0.5 -0.162,0" transform="scale(65)"/>
</g></g>
<g transform="rotate(72)"><g>
<g transform="rotate(72)"><polygon fill="#fff" points="0.162,0 0,-0.5 -0.162,0" transform="scale(65)"/>
</g><g transform="rotate(216)"><polygon fill="#fff" points="0.162,0 0,-0.5 -0.162,0" transform="scale(65)"/>
</g></g>
</g></g>
</g><g transform="translate(-150 -150)"><g>
<polygon fill="#fff" points="0.162,0 0,-0.5 -0.162,0" transform="scale(65)"/>
<g>
<g transform="rotate(72)"><polygon fill="#fff" points="0.162,0 0,-0.5 -0.162,0" transform="scale(65)"/>
</g><g transform="rotate(216)"><polygon fill="#fff" points="0.162,0 0,-0.5 -0.162,0" transform="scale(65)"/>
</g></g>
<g transform="rotate(72)"><g>
<g transform="rotate(72)"><polygon fill="#fff" points="0.162,0 0,-0.5 -0.162,0" transform="scale(65)"/>
</g><g transform="rotate(216)"><polygon fill="#fff" points="0.162,0 0,-0.5 -0.162,0" transform="scale(65)"/>
</g></g>
</g></g>
</g></g>
</g></g>
</g><g transform="translate(100 0)"><g>
<g transform="translate(-350 -150)"><g>
<polygon fill="#fff" points="0.162,0 0,-0.5 -0.162,0" transform="scale(65)"/>
<g>
<g transform="rotate(72)"><polygon fill="#fff" points="0.162,0 0,-0.5 -0.162,0" transform="scale(65)"/>
</g><g transform="rotate(216)"><polygon fill="#fff" points="0.162,0 0,-0.5 -0.162,0" transform="scale(65)"/>
</g></g>
<g transform="rotate(72)"><g>
<g transform="rotate(72)"><polygon fill="#fff" points="0.162,0 0,-0.5 -0.162,0" transform="scale(65)"/>
</g><g transform="rotate(216)"><polygon fill="#fff" points="0.162,0 0,-0.5 -0.162,0" transform="scale(65)"/>
</g></g>
</g></g>
</g><g transform="translate(-150 -150)"><g>
<polygon fill="#fff" points="0.162,0 0,-0.5 -0.162,0" transform="scale(65)"/>
<g>
<g transform="rotate(72)"><polygon fill="#fff" points="0.162,0 0,-0.5 -0.162,0" transform="scale(65)"/>
</g><g transform="rotate(216)"><polygon fill="#fff" points="0.162,0 0,-0.5 -0.162,0" transform="scale(65)"/>
</g></g>
<g transform="rotate(72)"><g>
<g transform="rotate(72)"><polygon fill="#fff" points="0.162,0 0,-0.5 -0.162,0" transform="scale(65)"/>
</g><g transform="rotate(216)"><polygon fill="#fff" points="0.162,0 0,-0.5 -0.162,0" transform="scale(65)"/>
</g></g>
</g></g>
</g></g>
</g><g transform="translate(100 300)"><g>
<g transform="translate(-350 -150)"><g>
<polygon fill="#fff" points="0.162,0 0,-0.5 -0.162,0" transform="scale(65)"/>
<g>
<g transform="rotate(72)"><polygon fill="#fff" points="0.162,0 0,-0.5 -0.162,0" transform="scale(65)"/>
</g><g transform="rotate(216)"><polygon fill="#fff" points="0.162,0 0,-0.5 -0.162,0" transform="scale(65)"/>
</g></g>
<g transform="rotate(72)"><g>
<g transform="rotate(72)"><polygon fill="#fff" points="0.162,0 0,-0.5 -0.162,0" transform="scale(65)"/>
</g><g transform="rotate(216)"><polygon fill="#fff" points="0.162,0 0,-0.5 -0.162,0" transform="scale(65)"/>
</g></g>
</g></g>
</g><g transform="translate(-150 -150)"><g>
<polygon fill="#fff" points="0.162,0 0,-0.5 -0.162,0" transform="scale(65)"/>
<g>
<g transform="rotate(72)"><polygon fill="#fff" points="0.162,0 0,-0.5 -0.162,0" transform="scale(65)"/>
</g><g transform="rotate(216)"><polygon fill="#fff" points="0.162,0 0,-0.5 -0.162,0" transform="scale(65)"/>
</g></g>
<g transform="rotate(72)"><g>
<g transform="rotate(72)"><polygon fill="#fff" points="0.162,0 0,-0.5 -0.162,0" transform="scale(65)"/>
</g><g transform="rotate(216)"><polygon fill="#fff" points="0.162,0 0,-0.5 -0.162,0" transform="scale(65)"/>
</g></g>
</g></g>
</g></g>
</g></g>
<g transform="scale(-1 1)"><g>
<g>
<g>
<g transform="translate(-350 -150)"><g>
<polygon fill="#fff" points="0.162,0 0,-0.5 -0.162,0" transform="scale(65)"/>
<g>
<g transform="rotate(72)"><polygon fill="#fff" points="0.162,0 0,-0.5 -0.162,0" transform="scale(65)"/>
</g><g transform="rotate(216)"><polygon fill="#fff" points="0.162,0 0,-0.5 -0.162,0" transform="scale(65)"/>
</g></g>
<g transform="rotate(72)"><g>
<g transform="rotate(72)"><polygon fill="#fff" points="0.162,0 0,-0.5 -0.162,0" transform="scale(65)"/>
</g><g transform="rotate(216)"><polygon fill="#fff" points="0.162,0 0,-0.5 -0.162,0" transform="scale(65)"/>
</g></g>
</g></g>
</g><g transform="translate(-150 -150)"><g>
<polygon fill="#fff" points="0.162,0 0,-0.5 -0.162,0" transform="scale(65)"/>
<g>
<g transform="rotate(72)"><polygon fill="#fff" points="0.162,0 0,-0.5 -0.162,0" transform="scale(65)"/>
</g><g transform="rotate(216)"><polygon fill="#fff" points="0.162,0 0,-0.5 -0.162,0" transform="scale(65)"/>
</g></g>
<g transform="rotate(72)"><g>
<g transform="rotate(72)"><polygon fill="#fff" points="0.162,0 0,-0.5 -0.162,0" transform="scale(65)"/>
</g><g transform="rotate(216)"><polygon fill="#fff" points="0.162,0 0,-0.5 -0.162,0" transform="scale(65)"/>
</g></g>
</g></g>
</g></g>
<g transform="translate(0 200)"><g>
<g transform="translate(-350 -150)"><g>
<polygon fill="#fff" points="0.162,0 0,-0.5 -0.162,0" transform="scale(65)"/>
<g>
<g transform="rotate(72)"><polygon fill="#fff" points="0.162,0 0,-0.5 -0.162,0" transform="scale(65)"/>
</g><g transform="rotate(216)"><polygon fill="#fff" points="0.162,0 0,-0.5 -0.162,0" transform="scale(65)"/>
</g></g>
<g transform="rotate(72)"><g>
<g transform="rotate(72)"><polygon fill="#fff" points="0.162,0 0,-0.5 -0.162,0" transform="scale(65)"/>
</g><g transform="rotate(216)"><polygon fill="#fff" points="0.162,0 0,-0.5 -0.162,0" transform="scale(65)"/>
</g></g>
</g></g>
</g><g transform="translate(-150 -150)"><g>
<polygon fill="#fff" points="0.162,0 0,-0.5 -0.162,0" transform="scale(65)"/>
<g>
<g transform="rotate(72)"><polygon fill="#fff" points="0.162,0 0,-0.5 -0.162,0" transform="scale(65)"/>
</g><g transform="rotate(216)"><polygon fill="#fff" points="0.162,0 0,-0.5 -0.162,0" transform="scale(65)"/>
</g></g>
<g transform="rotate(72)"><g>
<g transform="rotate(72)"><polygon fill="#fff" points="0.162,0 0,-0.5 -0.162,0" transform="scale(65)"/>
</g><g transform="rotate(216)"><polygon fill="#fff" points="0.162,0 0,-0.5 -0.162,0" transform="scale(65)"/>
</g></g>
</g></g>
</g></g>
</g></g>
<g transform="translate(0 100)"><g>
<g>
<g transform="translate(-350 -150)"><g>
<polygon fill="#fff" points="0.162,0 0,-0.5 -0.162,0" transform="scale(65)"/>
<g>
<g transform="rotate(72)"><polygon fill="#fff" points="0.162,0 0,-0.5 -0.162,0" transform="scale(65)"/>
</g><g transform="rotate(216)"><polygon fill="#fff" points="0.162,0 0,-0.5 -0.162,0" transform="scale(65)"/>
</g></g>
<g transform="rotate(72)"><g>
<g transform="rotate(72)"><polygon fill="#fff" points="0.162,0 0,-0.5 -0.162,0" transform="scale(65)"/>
</g><g transform="rotate(216)"><polygon fill="#fff" points="0.162,0 0,-0.5 -0.162,0" transform="scale(65)"/>
</g></g>
</g></g>
</g><g transform="translate(-150 -150)"><g>
<polygon fill="#fff" points="0.162,0 0,-0.5 -0.162,0" transform="scale(65)"/>
<g>
<g transform="rotate(72)"><polygon fill="#fff" points="0.162,0 0,-0.5 -0.162,0" transform="scale(65)"/>
</g><g transform="rotate(216)"><polygon fill="#fff" points="0.162,0 0,-0.5 -0.162,0" transform="scale(65)"/>
</g></g>
<g transform="rotate(72)"><g>
<g transform="rotate(72)"><polygon fill="#fff" points="0.162,0 0,-0.5 -0.162,0" transform="scale(65)"/>
</g><g transform="rotate(216)"><polygon fill="#fff" points="0.162,0 0,-0.5 -0.162,0" transform="scale(65)"/>
</g></g>
</g></g>
</g></g>
<g transform="translate(0 200)"><g>
<g transform="translate(-350 -150)"><g>
<polygon fill="#fff" points="0.162,0 0,-0.5 -0.162,0" transform="scale(65)"/>
<g>
<g transform="rotate(72)"><polygon fill="#fff" points="0.162,0 0,-0.5 -0.162,0" transform="scale(65)"/>
</g><g transform="rotate(216)"><polygon fill="#fff" points="0.162,0 0,-0.5 -0.162,0" transform="scale(65)"/>
</g></g>
<g transform="rotate(72)"><g>
<g transform="rotate(72)"><polygon fill="#fff" points="0.162,0 0,-0.5 -0.162,0" transform="scale(65)"/>
</g><g transform="rotate(216)"><polygon fill="#fff" points="0.162,0 0,-0.5 -0.162,0" transform="scale(65)"/>
</g></g>
</g></g>
</g><g transform="translate(-150 -150)"><g>
<polygon fill="#fff" points="0.162,0 0,-0.5 -0.162,0" transform="scale(65)"/>
<g>
<g transform="rotate(72)"><polygon fill="#fff" points="0.162,0 0,-0.5 -0.162,0" transform="scale(65)"/>
</g><g transform="rotate(216)"><polygon fill="#fff" points="0.162,0 0,-0.5 -0.162,0" transform="scale(65)"/>
</g></g>
<g transform="rotate(72)"><g>
<g transform="rotate(72)"><polygon fill="#fff" points="0.162,0 0,-0.5 -0.162,0" transform="scale(65)"/>
</g><g transform="rotate(216)"><polygon fill="#fff" points="0.162,0 0,-0.5 -0.162,0" transform="scale(65)"/>
</g></g>
</g></g>
</g></g>
</g></g>
</g><g transform="translate(100 0)"><g>
<g transform="translate(-350 -150)"><g>
<polygon fill="#fff" points="0.162,0 0,-0.5 -0.162,0" transform="scale(65)"/>
<g>
<g transform="rotate(72)"><polygon fill="#fff" points="0.162,0 0,-0.5 -0.162,0" transform="scale(65)"/>
</g><g transform="rotate(216)"><polygon fill="#fff" points="0.162,0 0,-0.5 -0.162,0" transform="scale(65)"/>
</g></g>
<g transform="rotate(72)"><g>
<g transform="rotate(72)"><polygon fill="#fff" points="0.162,0 0,-0.5 -0.162,0" transform="scale(65)"/>
</g><g transform="rotate(216)"><polygon fill="#fff" points="0.162,0 0,-0.5 -0.162,0" transform="scale(65)"/>
</g></g>
</g></g>
</g><g transform="translate(-150 -150)"><g>
<polygon fill="#fff" points="0.162,0 0,-0.5 -0.162,0" transform="scale(65)"/>
<g>
<g transform="rotate(72)"><polygon fill="#fff" points="0.162,0 0,-0.5 -0.162,0" transform="scale(65)"/>
</g><g transform="rotate(216)"><polygon fill="#fff" points="0.162,0 0,-0.5 -0.162,0" transform="scale(65)"/>
</g></g>
<g transform="rotate(72)"><g>
<g transform="rotate(72)"><polygon fill="#fff" points="0.162,0 0,-0.5 -0.162,0" transform="scale(65)"/>
</g><g transform="rotate(216)"><polygon fill="#fff" points="0.162,0 0,-0.5 -0.162,0" transform="scale(65)"/>
</g></g>
</g></g>
</g></g>
</g><g transform="translate(100 300)"><g>
<g transform="translate(-350 -150)"><g>
<polygon fill="#fff" points="0.162,0 0,-0.5 -0.162,0" transform="scale(65)"/>
<g>
<g transform="rotate(72)"><polygon fill="#fff" points="0.162,0 0,-0.5 -0.162,0" transform="scale(65)"/>
</g><g transform="rotate(216)"><polygon fill="#fff" points="0.162,0 0,-0.5 -0.162,0" transform="scale(65)"/>
</g></g>
<g transform="rotate(72)"><g>
<g transform="rotate(72)"><polygon fill="#fff" points="0.162,0 0,-0.5 -0.162,0" transform="scale(65)"/>
</g><g transform="rotate(216)"><polygon fill="#fff" points="0.162,0 0,-0.5 -0.162,0" transform="scale(65)"/>
</g></g>
</g></g>
</g><g transform="translate(-150 -150)"><g>
<polygon fill="#fff" points="0.162,0 0,-0.5 -0.162,0" transform="scale(65)"/>
<g>
<g transform="rotate(72)"><polygon fill="#fff" points="0.162,0 0,-0.5 -0.162,0" transform="scale(65)"/>
</g><g transform="rotate(216)"><polygon fill="#fff" points="0.162,0 0,-0.5 -0.162,0" transform="scale(65)"/>
</g></g>
<g transform="rotate(72)"><g>
<g transform="rotate(72)"><polygon fill="#fff" points="0.162,0 0,-0.5 -0.162,0" transform="scale(65)"/>
</g><g transform="rotate(216)"><polygon fill="#fff" points="0.162,0 0,-0.5 -0.162,0" transform="scale(65)"/>
</g></g>
</g></g>
</g></g>
</g></g>
</g></g>
</svg>