<?xml version='1.0' encoding='UTF-8'?>
<svg xmlns="http://www.w3.org/2000/svg" xmlns:xlink="http://www.w3.org/1999/xlink" width="2025" height="1350" viewBox="0 0 1350 900">
	<defs>
		<g id="ma-star" transform="scale(168.75)"><!-- =3/4 of 225 -->
			<g id="ma-cone">
				<polygon id="ma-triangle" fill="#FFFFFF" points="0,0 0,1 .5,1" transform="translate(0,-1) rotate(18)"/>
				<g transform="scale(-1,1)"><polygon fill="#FFFFFF" points="0,0 0,1 .5,1" transform="translate(0,-1) rotate(18)"/>
				</g></g>
			<g transform="rotate(72)"><g>
				<polygon fill="#FFFFFF" points="0,0 0,1 .5,1" transform="translate(0,-1) rotate(18)"/>
				<g transform="scale(-1,1)"><polygon fill="#FFFFFF" points="0,0 0,1 .5,1" transform="translate(0,-1) rotate(18)"/>
				</g></g>
			</g><g transform="rotate(-72)"><g>
				<polygon fill="#FFFFFF" points="0,0 0,1 .5,1" transform="translate(0,-1) rotate(18)"/>
				<g transform="scale(-1,1)"><polygon fill="#FFFFFF" points="0,0 0,1 .5,1" transform="translate(0,-1) rotate(18)"/>
				</g></g>
			</g><g transform="rotate(144)"><g>
				<polygon fill="#FFFFFF" points="0,0 0,1 .5,1" transform="translate(0,-1) rotate(18)"/>
				<g transform="scale(-1,1)"><polygon fill="#FFFFFF" points="0,0 0,1 .5,1" transform="translate(0,-1) rotate(18)"/>
				</g></g>
			</g><g transform="rotate(-144)"><g>
				<polygon fill="#FFFFFF" points="0,0 0,1 .5,1" transform="translate(0,-1) rotate(18)"/>
				<g transform="scale(-1,1)"><polygon fill="#FFFFFF" points="0,0 0,1 .5,1" transform="translate(0,-1) rotate(18)"/>
				</g></g>
			</g></g>
	</defs>
	<rect fill="#FFFFFF" width="100%" height="100%"/>
	<rect fill="#C53425" width="100%" height="100"/> 
	<rect fill="#C53425" width="100%" height="100" y="400"/> 
	<rect fill="#C53425" width="100%" height="100" y="800"/> 
	<rect fill="#000000" width="100%" height="100" y="200"/> 
	<rect fill="#000000" width="100%" height="100" y="600"/> 
	<rect fill="#25247B" width="450" height="50%"/>
	<g transform="translate(225 225)"><g transform="scale(168.75)"><!-- =3/4 of 225 -->
			<g>
				<polygon fill="#FFFFFF" points="0,0 0,1 .5,1" transform="translate(0,-1) rotate(18)"/>
				<g transform="scale(-1,1)"><polygon fill="#FFFFFF" points="0,0 0,1 .5,1" transform="translate(0,-1) rotate(18)"/>
				</g></g>
			<g transform="rotate(72)"><g>
				<polygon fill="#FFFFFF" points="0,0 0,1 .5,1" transform="translate(0,-1) rotate(18)"/>
				<g transform="scale(-1,1)"><polygon fill="#FFFFFF" points="0,0 0,1 .5,1" transform="translate(0,-1) rotate(18)"/>
				</g></g>
			</g><g transform="rotate(-72)"><g>
				<polygon fill="#FFFFFF" points="0,0 0,1 .5,1" transform="translate(0,-1) rotate(18)"/>
				<g transform="scale(-1,1)"><polygon fill="#FFFFFF" points="0,0 0,1 .5,1" transform="translate(0,-1) rotate(18)"/>
				</g></g>
			</g><g transform="rotate(144)"><g>
				<polygon fill="#FFFFFF" points="0,0 0,1 .5,1" transform="translate(0,-1) rotate(18)"/>
				<g transform="scale(-1,1)"><polygon fill="#FFFFFF" points="0,0 0,1 .5,1" transform="translate(0,-1) rotate(18)"/>
				</g></g>
			</g><g transform="rotate(-144)"><g>
				<polygon fill="#FFFFFF" points="0,0 0,1 .5,1" transform="translate(0,-1) rotate(18)"/>
				<g transform="scale(-1,1)"><polygon fill="#FFFFFF" points="0,0 0,1 .5,1" transform="translate(0,-1) rotate(18)"/>
				</g></g>
			</g></g>
	</g></svg>