<?xml version='1.0' encoding='UTF-8'?>
<svg xmlns="http://www.w3.org/2000/svg" xmlns:xlink="http://www.w3.org/1999/xlink" version="1.1" width="1950" height="1300" viewBox="0 0 1950 1300">
	<desc>Bandeira do Piauí</desc>
	<defs>
		<g id="pi-star" transform="scale(200)">
			<g id="pi-cone">
				<polygon id="pi-triangle" fill="#ffffff" points="0,0 0,1 .5,1" transform="translate(0,-1) rotate(18)"/>
				<g transform="scale(-1,1)"><polygon fill="#ffffff" points="0,0 0,1 .5,1" transform="translate(0,-1) rotate(18)"/>
				</g></g>
			<g transform="rotate(72)"><g>
				<polygon fill="#ffffff" points="0,0 0,1 .5,1" transform="translate(0,-1) rotate(18)"/>
				<g transform="scale(-1,1)"><polygon fill="#ffffff" points="0,0 0,1 .5,1" transform="translate(0,-1) rotate(18)"/>
				</g></g>
			</g><g transform="rotate(-72)"><g>
				<polygon fill="#ffffff" points="0,0 0,1 .5,1" transform="translate(0,-1) rotate(18)"/>
				<g transform="scale(-1,1)"><polygon fill="#ffffff" points="0,0 0,1 .5,1" transform="translate(0,-1) rotate(18)"/>
				</g></g>
			</g><g transform="rotate(144)"><g>
				<polygon fill="#ffffff" points="0,0 0,1 .5,1" transform="translate(0,-1) rotate(18)"/>
				<g transform="scale(-1,1)"><polygon fill="#ffffff" points="0,0 0,1 .5,1" transform="translate(0,-1) rotate(18)"/>
				</g></g>
			</g><g transform="rotate(-144)"><g>
				<polygon fill="#ffffff" points="0,0 0,1 .5,1" transform="translate(0,-1) rotate(18)"/>
				<g transform="scale(-1,1)"><polygon fill="#ffffff" points="0,0 0,1 .5,1" transform="translate(0,-1) rotate(18)"/>
				</g></g>
			</g></g>
		<rect id="pi-stripe" fill="#56A134" width="100%" height="100"/>
	</defs>
	<rect fill="#FFD500" width="100%" height="1300"/>
	<g><rect fill="#56A134" width="100%" height="100"/>
	</g><g transform="translate(0 200)"><rect fill="#56A134" width="100%" height="100"/>
	</g><g transform="translate(0 400)"><rect fill="#56A134" width="100%" height="100"/>
	</g><g transform="translate(0 600)"><rect fill="#56A134" width="100%" height="100"/>
	</g><g transform="translate(0 800)"><rect fill="#56A134" width="100%" height="100"/>
	</g><g transform="translate(0 1000)"><rect fill="#56A134" width="100%" height="100"/>
	</g><g transform="translate(0 1200)"><rect fill="#56A134" width="100%" height="100"/>
	</g><rect width="750" height="500" fill="#0B1097"/>
	<text x="375" y="470" font-family="Arial" font-size="60" text-anchor="middle" fill="#FFFFFF">13 DE MARÇO DE 1823</text>
	<g transform="translate(375 225)"><g transform="scale(200)">
			<g>
				<polygon fill="#ffffff" points="0,0 0,1 .5,1" transform="translate(0,-1) rotate(18)"/>
				<g transform="scale(-1,1)"><polygon fill="#ffffff" points="0,0 0,1 .5,1" transform="translate(0,-1) rotate(18)"/>
				</g></g>
			<g transform="rotate(72)"><g>
				<polygon fill="#ffffff" points="0,0 0,1 .5,1" transform="translate(0,-1) rotate(18)"/>
				<g transform="scale(-1,1)"><polygon fill="#ffffff" points="0,0 0,1 .5,1" transform="translate(0,-1) rotate(18)"/>
				</g></g>
			</g><g transform="rotate(-72)"><g>
				<polygon fill="#ffffff" points="0,0 0,1 .5,1" transform="translate(0,-1) rotate(18)"/>
				<g transform="scale(-1,1)"><polygon fill="#ffffff" points="0,0 0,1 .5,1" transform="translate(0,-1) rotate(18)"/>
				</g></g>
			</g><g transform="rotate(144)"><g>
				<polygon fill="#ffffff" points="0,0 0,1 .5,1" transform="translate(0,-1) rotate(18)"/>
				<g transform="scale(-1,1)"><polygon fill="#ffffff" points="0,0 0,1 .5,1" transform="translate(0,-1) rotate(18)"/>
				</g></g>
			</g><g transform="rotate(-144)"><g>
				<polygon fill="#ffffff" points="0,0 0,1 .5,1" transform="translate(0,-1) rotate(18)"/>
				<g transform="scale(-1,1)"><polygon fill="#ffffff" points="0,0 0,1 .5,1" transform="translate(0,-1) rotate(18)"/>
				</g></g>
			</g></g>
		</g></svg>