<?xml version='1.0' encoding='UTF-8'?>
<svg xmlns="http://www.w3.org/2000/svg" xmlns:xlink="http://www.w3.org/1999/xlink" viewBox="0 0 20 14"><path d="m0 0h20v14H0" fill="#fff"/><path d="m13 0h-13v9" fill="#1946b4"/><path d="m7 14h13v-9" fill="#ff9600"/><g id="b"><g id="c"><path id="a" d="m9.08 5.69-.19-.71 .5 .54-.03-.73 .36 .63 .28-2.42 .28 2.42-.28 1.62" fill="#ff9600"/><g transform="rotate(45 10 7)"><path d="m9.08 5.69-.19-.71 .5 .54-.03-.73 .36 .63 .28-2.42 .28 2.42-.28 1.62" fill="#ff9600"/></g></g><g transform="rotate(90 10 7)"><g><path d="m9.08 5.69-.19-.71 .5 .54-.03-.73 .36 .63 .28-2.42 .28 2.42-.28 1.62" fill="#ff9600"/><g transform="rotate(45 10 7)"><path d="m9.08 5.69-.19-.71 .5 .54-.03-.73 .36 .63 .28-2.42 .28 2.42-.28 1.62" fill="#ff9600"/></g></g></g></g><g transform="rotate(180 10 7)"><g><g><path d="m9.08 5.69-.19-.71 .5 .54-.03-.73 .36 .63 .28-2.42 .28 2.42-.28 1.62" fill="#ff9600"/><g transform="rotate(45 10 7)"><path d="m9.08 5.69-.19-.71 .5 .54-.03-.73 .36 .63 .28-2.42 .28 2.42-.28 1.62" fill="#ff9600"/></g></g><g transform="rotate(90 10 7)"><g><path d="m9.08 5.69-.19-.71 .5 .54-.03-.73 .36 .63 .28-2.42 .28 2.42-.28 1.62" fill="#ff9600"/><g transform="rotate(45 10 7)"><path d="m9.08 5.69-.19-.71 .5 .54-.03-.73 .36 .63 .28-2.42 .28 2.42-.28 1.62" fill="#ff9600"/></g></g></g></g></g></svg>